# Blender 4.2.14 LTS
# www.blender.org
o Circle.001
v 0.000000 0.097162 -0.000000
v 0.018955 0.095295 -0.000000
v 0.037182 0.089766 -0.000000
v 0.053980 0.080787 -0.000000
v 0.068704 0.068704 -0.000000
v 0.080787 0.053980 -0.000000
v 0.089766 0.037182 -0.000000
v 0.095295 0.018955 -0.000000
v 0.097162 0.000000 -0.000000
v 0.000000 0.084845 -0.000000
v 0.016553 0.083215 -0.000000
v 0.032469 0.078387 -0.000000
v 0.047138 0.070546 -0.000000
v 0.059995 0.059995 -0.000000
v 0.070546 0.047138 -0.000000
v 0.078387 0.032469 -0.000000
v 0.083215 0.016552 -0.000000
v 0.084845 0.000000 -0.000000
v 0.000000 0.071277 -0.000000
v 0.050401 0.050401 -0.000000
v 0.071278 0.000000 -0.000000
v 0.000000 0.000000 -0.000000
v -0.018955 0.095295 -0.000000
v -0.037182 0.089766 -0.000000
v -0.053980 0.080787 -0.000000
v -0.068704 0.068704 -0.000000
v -0.080787 0.053980 -0.000000
v -0.089766 0.037182 -0.000000
v -0.095295 0.018955 -0.000000
v -0.097162 0.000000 -0.000000
v -0.016553 0.083215 -0.000000
v -0.032469 0.078387 -0.000000
v -0.047138 0.070546 -0.000000
v -0.059995 0.059995 -0.000000
v -0.070546 0.047138 -0.000000
v -0.078387 0.032469 -0.000000
v -0.083215 0.016552 -0.000000
v -0.084845 0.000000 -0.000000
v -0.050401 0.050401 -0.000000
v -0.071278 0.000000 -0.000000
v 0.000000 -0.097162 -0.000000
v 0.018955 -0.095295 -0.000000
v 0.037182 -0.089766 -0.000000
v 0.053980 -0.080787 -0.000000
v 0.068704 -0.068704 -0.000000
v 0.080787 -0.053980 -0.000000
v 0.089766 -0.037182 -0.000000
v 0.095295 -0.018955 -0.000000
v 0.000000 -0.084845 -0.000000
v 0.016553 -0.083215 -0.000000
v 0.032469 -0.078387 -0.000000
v 0.047138 -0.070546 -0.000000
v 0.059995 -0.059995 -0.000000
v 0.070546 -0.047138 -0.000000
v 0.078387 -0.032469 -0.000000
v 0.083215 -0.016552 -0.000000
v 0.000000 -0.071277 -0.000000
v 0.050401 -0.050401 -0.000000
v -0.018955 -0.095295 -0.000000
v -0.037182 -0.089766 -0.000000
v -0.053980 -0.080787 -0.000000
v -0.068704 -0.068704 -0.000000
v -0.080787 -0.053980 -0.000000
v -0.089766 -0.037182 -0.000000
v -0.095295 -0.018955 -0.000000
v -0.016553 -0.083215 -0.000000
v -0.032469 -0.078387 -0.000000
v -0.047138 -0.070546 -0.000000
v -0.059995 -0.059995 -0.000000
v -0.070546 -0.047138 -0.000000
v -0.078387 -0.032469 -0.000000
v -0.083215 -0.016552 -0.000000
v -0.050401 -0.050401 -0.000000
vn -0.0000 -0.0000 1.0000
vt 0.000000 0.000000
s 0
f 2/1/1 12/1/1 3/1/1
f 4/1/1 12/1/1 13/1/1
f 4/1/1 14/1/1 5/1/1
f 6/1/1 14/1/1 15/1/1
f 6/1/1 16/1/1 7/1/1
f 7/1/1 17/1/1 8/1/1
f 9/1/1 17/1/1 18/1/1
f 2/1/1 10/1/1 11/1/1
f 11/1/1 19/1/1 12/1/1
f 10/1/1 19/1/1 11/1/1
f 19/1/1 22/1/1 20/1/1
f 20/1/1 22/1/1 21/1/1
f 20/1/1 12/1/1 19/1/1
f 12/1/1 20/1/1 13/1/1
f 13/1/1 20/1/1 14/1/1
f 14/1/1 20/1/1 15/1/1
f 15/1/1 20/1/1 16/1/1
f 21/1/1 16/1/1 20/1/1
f 16/1/1 21/1/1 17/1/1
f 17/1/1 21/1/1 18/1/1
f 2/1/1 11/1/1 12/1/1
f 4/1/1 3/1/1 12/1/1
f 4/1/1 13/1/1 14/1/1
f 6/1/1 5/1/1 14/1/1
f 6/1/1 15/1/1 16/1/1
f 7/1/1 16/1/1 17/1/1
f 9/1/1 8/1/1 17/1/1
f 2/1/1 1/1/1 10/1/1
f 23/1/1 24/1/1 32/1/1
f 25/1/1 33/1/1 32/1/1
f 25/1/1 26/1/1 34/1/1
f 27/1/1 35/1/1 34/1/1
f 27/1/1 28/1/1 36/1/1
f 28/1/1 29/1/1 37/1/1
f 30/1/1 38/1/1 37/1/1
f 23/1/1 31/1/1 10/1/1
f 31/1/1 32/1/1 19/1/1
f 10/1/1 31/1/1 19/1/1
f 19/1/1 39/1/1 22/1/1
f 39/1/1 40/1/1 22/1/1
f 39/1/1 19/1/1 32/1/1
f 32/1/1 33/1/1 39/1/1
f 33/1/1 34/1/1 39/1/1
f 34/1/1 35/1/1 39/1/1
f 35/1/1 36/1/1 39/1/1
f 40/1/1 39/1/1 36/1/1
f 36/1/1 37/1/1 40/1/1
f 37/1/1 38/1/1 40/1/1
f 23/1/1 32/1/1 31/1/1
f 25/1/1 32/1/1 24/1/1
f 25/1/1 34/1/1 33/1/1
f 27/1/1 34/1/1 26/1/1
f 27/1/1 36/1/1 35/1/1
f 28/1/1 37/1/1 36/1/1
f 30/1/1 37/1/1 29/1/1
f 23/1/1 10/1/1 1/1/1
f 42/1/1 43/1/1 51/1/1
f 44/1/1 52/1/1 51/1/1
f 44/1/1 45/1/1 53/1/1
f 46/1/1 54/1/1 53/1/1
f 46/1/1 47/1/1 55/1/1
f 47/1/1 48/1/1 56/1/1
f 9/1/1 18/1/1 56/1/1
f 42/1/1 50/1/1 49/1/1
f 50/1/1 51/1/1 57/1/1
f 49/1/1 50/1/1 57/1/1
f 57/1/1 58/1/1 22/1/1
f 58/1/1 21/1/1 22/1/1
f 58/1/1 57/1/1 51/1/1
f 51/1/1 52/1/1 58/1/1
f 52/1/1 53/1/1 58/1/1
f 53/1/1 54/1/1 58/1/1
f 54/1/1 55/1/1 58/1/1
f 21/1/1 58/1/1 55/1/1
f 55/1/1 56/1/1 21/1/1
f 56/1/1 18/1/1 21/1/1
f 42/1/1 51/1/1 50/1/1
f 44/1/1 51/1/1 43/1/1
f 44/1/1 53/1/1 52/1/1
f 46/1/1 53/1/1 45/1/1
f 46/1/1 55/1/1 54/1/1
f 47/1/1 56/1/1 55/1/1
f 9/1/1 56/1/1 48/1/1
f 42/1/1 49/1/1 41/1/1
f 59/1/1 67/1/1 60/1/1
f 61/1/1 67/1/1 68/1/1
f 61/1/1 69/1/1 62/1/1
f 63/1/1 69/1/1 70/1/1
f 63/1/1 71/1/1 64/1/1
f 64/1/1 72/1/1 65/1/1
f 30/1/1 72/1/1 38/1/1
f 59/1/1 49/1/1 66/1/1
f 66/1/1 57/1/1 67/1/1
f 49/1/1 57/1/1 66/1/1
f 57/1/1 22/1/1 73/1/1
f 73/1/1 22/1/1 40/1/1
f 73/1/1 67/1/1 57/1/1
f 67/1/1 73/1/1 68/1/1
f 68/1/1 73/1/1 69/1/1
f 69/1/1 73/1/1 70/1/1
f 70/1/1 73/1/1 71/1/1
f 40/1/1 71/1/1 73/1/1
f 71/1/1 40/1/1 72/1/1
f 72/1/1 40/1/1 38/1/1
f 59/1/1 66/1/1 67/1/1
f 61/1/1 60/1/1 67/1/1
f 61/1/1 68/1/1 69/1/1
f 63/1/1 62/1/1 69/1/1
f 63/1/1 70/1/1 71/1/1
f 64/1/1 71/1/1 72/1/1
f 30/1/1 65/1/1 72/1/1
f 59/1/1 41/1/1 49/1/1
