# Blender 4.2.14 LTS
# www.blender.org
o OrgHighlightLite
v 0.085819 -0.011376 0.000000
v 0.075494 -0.007646 0.000000
v 0.082212 -0.018290 0.000000
v 0.088224 -0.004706 0.000000
v 0.077647 -0.024904 -0.000000
v 0.088562 -0.000086 0.000000
v 0.071916 -0.032889 -0.000000
v 0.087811 0.005325 -0.000000
v 0.065754 -0.039991 -0.000000
v 0.086007 0.011413 -0.000000
v 0.059798 -0.045496 -0.000000
v 0.079300 0.022479 -0.000000
v 0.055589 -0.047769 -0.000000
v 0.071232 0.031529 0.000000
v 0.050667 -0.049010 -0.000000
v 0.058877 0.042012 0.000000
v 0.045181 -0.049198 -0.000000
v 0.029873 0.061700 -0.000000
v 0.034998 -0.045534 -0.000000
v 0.018199 0.068027 -0.000000
v 0.025012 -0.040315 -0.000000
v 0.006365 0.073225 -0.000000
v 0.013149 -0.033263 -0.000000
v -0.005866 0.075818 0.000000
v -0.019339 -0.012483 0.000000
v -0.012179 0.075124 0.000000
v -0.030274 -0.004962 0.000000
v -0.017665 0.073507 -0.000000
v -0.039009 0.001870 -0.000000
v -0.022175 0.071010 -0.000000
v -0.047463 0.010436 -0.000000
v -0.028262 0.065240 -0.000000
v -0.049925 0.015771 -0.000000
v -0.034330 0.057970 -0.000000
v -0.051108 0.020921 -0.000000
v -0.039854 0.049835 -0.000000
v -0.050958 0.025729 0.000000
v -0.044739 0.041624 0.000000
v -0.048553 0.033320 0.000000
v 0.044460 0.052027 -0.000000
v -0.003352 -0.023215 0.000000
v 0.072448 -0.013483 0.000000
v 0.077524 -0.002015 0.000000
v 0.068594 -0.019066 0.000000
v 0.077809 0.001885 -0.000000
v 0.063757 -0.025807 -0.000000
v 0.077175 0.006453 -0.000000
v 0.058554 -0.031803 -0.000000
v 0.075652 0.011592 -0.000000
v 0.053526 -0.036450 -0.000000
v 0.069990 0.020935 -0.000000
v 0.049974 -0.038369 -0.000000
v 0.063179 0.028575 0.000000
v 0.045818 -0.039417 -0.000000
v 0.052749 0.037424 0.000000
v 0.041187 -0.039576 -0.000000
v 0.028264 0.054045 -0.000000
v 0.032590 -0.036482 -0.000000
v 0.018408 0.059386 -0.000000
v 0.024160 -0.032076 -0.000000
v 0.008418 0.063774 -0.000000
v 0.014146 -0.026123 -0.000000
v -0.001907 0.065963 -0.000000
v -0.013281 -0.008580 0.000000
v -0.007237 0.065377 -0.000000
v -0.022513 -0.002232 0.000000
v -0.011868 0.064012 -0.000000
v -0.029886 0.003536 -0.000000
v -0.015675 0.061904 -0.000000
v -0.037023 0.010768 -0.000000
v -0.020814 0.057033 -0.000000
v -0.039101 0.015272 -0.000000
v -0.025937 0.050896 -0.000000
v -0.040101 0.019619 -0.000000
v -0.030600 0.044029 0.000000
v -0.039974 0.023678 -0.000000
v -0.034724 0.037097 0.000000
v -0.037943 0.030086 0.000000
v 0.040506 0.045734 0.000000
v 0.000432 -0.017352 0.000000
v 0.006537 0.049041 0.000000
v 0.033995 0.034796 0.000000
v 0.054348 0.016408 -0.000000
v 0.058970 0.002032 -0.000000
v 0.046064 -0.017641 0.000000
v 0.033056 -0.019554 0.000000
v 0.003784 -0.007797 0.000000
v -0.020265 0.012812 -0.000000
v -0.022122 0.028668 0.000000
v -0.009409 0.047016 0.000000
v 0.018890 0.013500 -0.000000
v -0.063323 0.004073 0.000000
v -0.045007 -0.008162 0.000000
v -0.032606 -0.023280 0.000000
v -0.031345 -0.033229 -0.000000
v -0.042994 -0.047315 -0.000000
v -0.052862 -0.049820 -0.000000
v -0.071247 -0.037589 -0.000000
v -0.087723 -0.021814 0.000000
v -0.086764 -0.011450 0.000000
v -0.071754 0.004383 0.000000
v -0.058127 -0.022875 0.000000
vn -0.0000 -0.0000 1.0000
vn -0.0000 -0.0000 -1.0000
vt 0.000000 0.000000
s 0
f 81/1/1 91/1/1 82/1/1
f 90/1/1 91/1/1 81/1/1
f 89/1/1 91/1/1 90/1/1
f 88/1/1 91/1/1 89/1/1
f 87/1/1 91/1/1 88/1/1
f 87/1/1 86/1/1 91/1/1
f 85/1/1 91/1/1 86/1/1
f 84/1/1 91/1/1 85/1/1
f 83/1/1 91/1/1 84/1/1
f 82/1/1 91/1/1 83/1/1
f 79/1/1 57/1/1 82/1/1
f 59/1/1 82/1/1 57/1/1
f 82/1/1 59/1/1 81/1/1
f 61/1/1 81/1/1 59/1/1
f 63/1/1 81/1/1 61/1/1
f 65/1/1 81/1/1 63/1/1
f 67/1/1 81/1/1 65/1/1
f 81/1/1 67/1/1 90/1/1
f 69/1/1 90/1/1 67/1/1
f 71/1/1 90/1/1 69/1/1
f 73/1/1 90/1/1 71/1/1
f 75/1/1 90/1/1 73/1/1
f 90/1/1 75/1/1 89/1/1
f 77/1/1 89/1/1 75/1/1
f 78/1/1 89/1/1 77/1/1
f 78/1/1 76/1/1 89/1/1
f 76/1/1 74/1/1 89/1/1
f 89/1/1 74/1/1 88/1/1
f 74/1/1 72/1/1 88/1/1
f 72/1/1 70/1/1 88/1/1
f 70/1/1 68/1/1 88/1/1
f 68/1/1 66/1/1 88/1/1
f 88/1/1 66/1/1 87/1/1
f 66/1/1 64/1/1 87/1/1
f 80/1/1 87/1/1 64/1/1
f 80/1/1 62/1/1 87/1/1
f 62/1/1 60/1/1 87/1/1
f 87/1/1 60/1/1 86/1/1
f 60/1/1 58/1/1 86/1/1
f 58/1/1 56/1/1 86/1/1
f 56/1/1 54/1/1 86/1/1
f 54/1/1 52/1/1 86/1/1
f 86/1/1 52/1/1 85/1/1
f 52/1/1 50/1/1 85/1/1
f 50/1/1 48/1/1 85/1/1
f 48/1/1 46/1/1 85/1/1
f 46/1/1 44/1/1 85/1/1
f 85/1/1 44/1/1 84/1/1
f 44/1/1 42/1/1 84/1/1
f 42/1/1 2/1/1 84/1/1
f 43/1/1 84/1/1 2/1/1
f 45/1/1 84/1/1 43/1/1
f 84/1/1 45/1/1 83/1/1
f 47/1/1 83/1/1 45/1/1
f 49/1/1 83/1/1 47/1/1
f 51/1/1 83/1/1 49/1/1
f 53/1/1 83/1/1 51/1/1
f 83/1/1 53/1/1 82/1/1
f 55/1/1 82/1/1 53/1/1
f 79/1/1 82/1/1 55/1/1
f 24/1/1 61/1/1 22/1/1
f 61/1/1 24/1/1 63/1/1
f 63/1/1 24/1/1 65/1/1
f 26/1/1 65/1/1 24/1/1
f 28/1/1 65/1/1 26/1/1
f 65/1/1 28/1/1 67/1/1
f 67/1/1 28/1/1 69/1/1
f 30/1/1 69/1/1 28/1/1
f 32/1/1 69/1/1 30/1/1
f 69/1/1 32/1/1 71/1/1
f 71/1/1 32/1/1 73/1/1
f 34/1/1 73/1/1 32/1/1
f 36/1/1 73/1/1 34/1/1
f 73/1/1 36/1/1 75/1/1
f 75/1/1 36/1/1 77/1/1
f 38/1/1 77/1/1 36/1/1
f 39/1/1 77/1/1 38/1/1
f 77/1/1 39/1/1 78/1/1
f 76/1/1 78/1/1 39/1/1
f 39/1/1 37/1/1 76/1/1
f 37/1/1 35/1/1 76/1/1
f 74/1/1 76/1/1 35/1/1
f 72/1/1 74/1/1 35/1/1
f 35/1/1 33/1/1 72/1/1
f 33/1/1 31/1/1 72/1/1
f 70/1/1 72/1/1 31/1/1
f 68/1/1 70/1/1 31/1/1
f 31/1/1 29/1/1 68/1/1
f 29/1/1 27/1/1 68/1/1
f 66/1/1 68/1/1 27/1/1
f 64/1/1 66/1/1 27/1/1
f 27/1/1 25/1/1 64/1/1
f 41/1/1 64/1/1 25/1/1
f 64/1/1 41/1/1 80/1/1
f 62/1/1 80/1/1 41/1/1
f 41/1/1 23/1/1 62/1/1
f 23/1/1 21/1/1 62/1/1
f 60/1/1 62/1/1 21/1/1
f 58/1/1 60/1/1 21/1/1
f 21/1/1 19/1/1 58/1/1
f 19/1/1 17/1/1 58/1/1
f 56/1/1 58/1/1 17/1/1
f 54/1/1 56/1/1 17/1/1
f 17/1/1 15/1/1 54/1/1
f 15/1/1 13/1/1 54/1/1
f 52/1/1 54/1/1 13/1/1
f 50/1/1 52/1/1 13/1/1
f 13/1/1 11/1/1 50/1/1
f 11/1/1 9/1/1 50/1/1
f 48/1/1 50/1/1 9/1/1
f 46/1/1 48/1/1 9/1/1
f 9/1/1 7/1/1 46/1/1
f 7/1/1 5/1/1 46/1/1
f 44/1/1 46/1/1 5/1/1
f 42/1/1 44/1/1 5/1/1
f 5/1/1 3/1/1 42/1/1
f 3/1/1 1/1/1 42/1/1
f 2/1/1 42/1/1 1/1/1
f 2/1/1 1/1/1 43/1/1
f 4/1/1 43/1/1 1/1/1
f 6/1/1 43/1/1 4/1/1
f 43/1/1 6/1/1 45/1/1
f 45/1/1 6/1/1 47/1/1
f 8/1/1 47/1/1 6/1/1
f 10/1/1 47/1/1 8/1/1
f 47/1/1 10/1/1 49/1/1
f 49/1/1 10/1/1 51/1/1
f 12/1/1 51/1/1 10/1/1
f 14/1/1 51/1/1 12/1/1
f 51/1/1 14/1/1 53/1/1
f 53/1/1 14/1/1 55/1/1
f 16/1/1 55/1/1 14/1/1
f 40/1/1 55/1/1 16/1/1
f 55/1/1 40/1/1 79/1/1
f 57/1/1 79/1/1 40/1/1
f 40/1/1 18/1/1 57/1/1
f 20/1/1 57/1/1 18/1/1
f 57/1/1 20/1/1 59/1/1
f 59/1/1 20/1/1 61/1/1
f 22/1/1 61/1/1 20/1/1
f 92/1/1 102/1/1 93/1/1
f 101/1/1 102/1/1 92/1/1
f 100/1/1 102/1/1 101/1/1
f 99/1/1 102/1/1 100/1/1
f 98/1/1 102/1/1 99/1/1
f 98/1/1 97/1/1 102/1/1
f 96/1/1 102/1/1 97/1/1
f 95/1/1 102/1/1 96/1/1
f 94/1/1 102/1/1 95/1/1
f 93/1/1 102/1/1 94/1/1
f 37/1/2 35/1/2 101/1/2
f 92/1/2 101/1/2 35/1/2
f 35/1/2 33/1/2 92/1/2
f 33/1/2 31/1/2 92/1/2
f 93/1/2 92/1/2 31/1/2
f 31/1/2 29/1/2 93/1/2
f 29/1/2 27/1/2 93/1/2
f 94/1/2 93/1/2 27/1/2
f 27/1/2 25/1/2 94/1/2
f 41/1/2 94/1/2 25/1/2
f 95/1/2 94/1/2 41/1/2
