# Blender 4.2.14 LTS
# www.blender.org
o OrgHighlightFlip
v 0.085819 -0.011376 0.000000
v 0.075494 -0.007646 0.000000
v 0.082212 -0.018290 0.000000
v 0.088224 -0.004706 0.000000
v 0.077647 -0.024904 -0.000000
v 0.088562 -0.000086 0.000000
v 0.071916 -0.032889 -0.000000
v 0.087811 0.005325 -0.000000
v 0.065754 -0.039991 -0.000000
v 0.086007 0.011413 -0.000000
v 0.059798 -0.045496 -0.000000
v 0.079300 0.022479 -0.000000
v 0.055589 -0.047769 -0.000000
v 0.071232 0.031529 0.000000
v 0.050667 -0.049010 -0.000000
v 0.058877 0.042012 0.000000
v 0.045181 -0.049198 -0.000000
v 0.029873 0.061700 -0.000000
v 0.034998 -0.045534 -0.000000
v 0.018199 0.068027 -0.000000
v 0.025012 -0.040315 -0.000000
v 0.006365 0.073225 -0.000000
v 0.013149 -0.033263 -0.000000
v -0.005866 0.075818 0.000000
v -0.019339 -0.012483 0.000000
v -0.012179 0.075124 0.000000
v -0.030274 -0.004962 0.000000
v -0.017665 0.073507 -0.000000
v -0.039009 0.001870 -0.000000
v -0.022175 0.071010 -0.000000
v -0.047463 0.010436 -0.000000
v -0.028262 0.065240 -0.000000
v -0.049925 0.015771 -0.000000
v -0.034330 0.057970 -0.000000
v -0.051108 0.020921 -0.000000
v -0.039854 0.049835 -0.000000
v -0.050958 0.025729 0.000000
v -0.044739 0.041624 0.000000
v -0.048553 0.033320 0.000000
v 0.044460 0.052027 -0.000000
v -0.003352 -0.023215 0.000000
v 0.072448 -0.013483 0.000000
v 0.077524 -0.002015 0.000000
v 0.068594 -0.019066 0.000000
v 0.077809 0.001885 -0.000000
v 0.063757 -0.025807 -0.000000
v 0.077175 0.006453 -0.000000
v 0.058554 -0.031803 -0.000000
v 0.075652 0.011592 -0.000000
v 0.053526 -0.036450 -0.000000
v 0.069990 0.020935 -0.000000
v 0.049974 -0.038369 -0.000000
v 0.063179 0.028575 0.000000
v 0.045818 -0.039417 -0.000000
v 0.052749 0.037424 0.000000
v 0.041187 -0.039576 -0.000000
v 0.028264 0.054045 -0.000000
v 0.032590 -0.036482 -0.000000
v 0.018408 0.059386 -0.000000
v 0.024160 -0.032076 -0.000000
v 0.008418 0.063774 -0.000000
v 0.014146 -0.026123 -0.000000
v -0.001907 0.065963 -0.000000
v -0.013281 -0.008580 0.000000
v -0.007237 0.065377 -0.000000
v -0.022513 -0.002232 0.000000
v -0.011868 0.064012 -0.000000
v -0.029886 0.003536 -0.000000
v -0.015675 0.061904 -0.000000
v -0.037023 0.010768 -0.000000
v -0.020814 0.057033 -0.000000
v -0.039101 0.015272 -0.000000
v -0.025937 0.050896 -0.000000
v -0.040101 0.019619 -0.000000
v -0.030600 0.044029 0.000000
v -0.039974 0.023678 -0.000000
v -0.034724 0.037097 0.000000
v -0.037943 0.030086 0.000000
v 0.040506 0.045734 0.000000
v 0.000432 -0.017352 0.000000
v 0.006537 0.049041 0.000000
v 0.033995 0.034796 0.000000
v 0.054348 0.016408 -0.000000
v 0.058970 0.002032 -0.000000
v 0.046064 -0.017641 0.000000
v 0.033056 -0.019554 0.000000
v 0.003784 -0.007797 0.000000
v -0.020265 0.012812 -0.000000
v -0.022122 0.028668 0.000000
v -0.009409 0.047016 0.000000
v 0.018890 0.013500 -0.000000
v -0.033003 -0.035847 -0.000000
v -0.037125 -0.033859 -0.000000
v -0.034945 -0.038685 -0.000000
v -0.031583 -0.033069 -0.000000
v -0.037272 -0.041358 -0.000000
v -0.031159 -0.031095 -0.000000
v -0.040173 -0.044578 -0.000000
v -0.031145 -0.028741 -0.000000
v -0.043202 -0.047401 -0.000000
v -0.031534 -0.026057 -0.000000
v -0.046047 -0.049547 0.000000
v -0.033684 -0.021049 0.000000
v -0.047958 -0.050367 0.000000
v -0.036530 -0.016858 0.000000
v -0.050108 -0.050717 0.000000
v -0.041095 -0.011892 0.000000
v -0.052430 -0.050594 0.000000
v -0.052111 -0.002348 0.000000
v -0.056496 -0.048640 -0.000000
v -0.056643 0.000806 -0.000000
v -0.060384 -0.046024 -0.000000
v -0.061311 0.003481 -0.000000
v -0.064951 -0.042551 -0.000000
v -0.066305 0.005051 -0.000000
v -0.077368 -0.032409 -0.000000
v -0.069006 0.004988 -0.000000
v -0.081516 -0.028768 -0.000000
v -0.071416 0.004497 -0.000000
v -0.084778 -0.025506 -0.000000
v -0.073468 0.003591 -0.000000
v -0.087817 -0.021509 0.000000
v -0.076384 0.001337 -0.000000
v -0.088528 -0.019123 0.000000
v -0.079384 -0.001562 0.000000
v -0.088712 -0.016866 0.000000
v -0.082207 -0.004854 0.000000
v -0.088356 -0.014804 0.000000
v -0.084766 -0.008202 0.000000
v -0.086879 -0.011630 0.000000
v -0.046556 -0.007050 0.000000
v -0.071289 -0.037617 -0.000000
v -0.038764 -0.036255 -0.000000
v -0.035927 -0.031514 -0.000000
v -0.040729 -0.038512 -0.000000
v -0.035568 -0.029847 -0.000000
v -0.043178 -0.041229 -0.000000
v -0.035557 -0.027860 -0.000000
v -0.045735 -0.043613 -0.000000
v -0.035885 -0.025594 -0.000000
v -0.048137 -0.045424 -0.000000
v -0.037700 -0.021367 0.000000
v -0.049750 -0.046117 -0.000000
v -0.040103 -0.017829 0.000000
v -0.051565 -0.046413 -0.000000
v -0.043956 -0.013636 0.000000
v -0.053525 -0.046309 -0.000000
v -0.053256 -0.005580 0.000000
v -0.056958 -0.044659 -0.000000
v -0.057082 -0.002917 0.000000
v -0.060240 -0.042451 -0.000000
v -0.061022 -0.000658 0.000000
v -0.064095 -0.039519 -0.000000
v -0.065238 0.000667 -0.000000
v -0.074578 -0.030956 -0.000000
v -0.067519 0.000614 -0.000000
v -0.078079 -0.027883 -0.000000
v -0.069553 0.000199 -0.000000
v -0.080833 -0.025129 -0.000000
v -0.071285 -0.000566 0.000000
v -0.083399 -0.021755 0.000000
v -0.073747 -0.002468 0.000000
v -0.083999 -0.019741 0.000000
v -0.076280 -0.004916 0.000000
v -0.084155 -0.017835 0.000000
v -0.078663 -0.007695 0.000000
v -0.083854 -0.016095 0.000000
v -0.080823 -0.010521 0.000000
v -0.082607 -0.013415 0.000000
v -0.048606 -0.009608 0.000000
v -0.069337 -0.035237 -0.000000
v -0.062714 -0.006922 0.000000
v -0.052016 -0.014068 0.000000
v -0.044565 -0.022731 0.000000
v -0.043495 -0.029083 -0.000000
v -0.050132 -0.037060 -0.000000
v -0.055729 -0.037399 -0.000000
v -0.067342 -0.031255 -0.000000
v -0.076215 -0.021500 0.000000
v -0.076029 -0.014614 0.000000
v -0.069554 -0.007199 0.000000
v -0.059679 -0.022661 0.000000
vn -0.0000 -0.0000 -1.0000
vn -0.0000 -0.0000 1.0000
vt 0.000000 0.000000
s 0
f 99/1/1 41/1/1 97/1/1
f 99/1/1 25/1/1 41/1/1
f 99/1/1 101/1/1 25/1/1
f 103/1/1 25/1/1 101/1/1
f 27/1/1 25/1/1 103/1/1
f 103/1/1 105/1/1 27/1/1
f 107/1/1 27/1/1 105/1/1
f 29/1/1 27/1/1 107/1/1
f 107/1/1 131/1/1 29/1/1
f 109/1/1 29/1/1 131/1/1
f 31/1/1 29/1/1 109/1/1
f 109/1/1 111/1/1 31/1/1
f 113/1/1 31/1/1 111/1/1
f 115/1/1 31/1/1 113/1/1
f 115/1/1 33/1/1 31/1/1
f 81/1/2 91/1/2 82/1/2
f 90/1/2 91/1/2 81/1/2
f 89/1/2 91/1/2 90/1/2
f 88/1/2 91/1/2 89/1/2
f 87/1/2 91/1/2 88/1/2
f 87/1/2 86/1/2 91/1/2
f 85/1/2 91/1/2 86/1/2
f 84/1/2 91/1/2 85/1/2
f 83/1/2 91/1/2 84/1/2
f 82/1/2 91/1/2 83/1/2
f 79/1/2 57/1/2 82/1/2
f 59/1/2 82/1/2 57/1/2
f 82/1/2 59/1/2 81/1/2
f 61/1/2 81/1/2 59/1/2
f 63/1/2 81/1/2 61/1/2
f 65/1/2 81/1/2 63/1/2
f 67/1/2 81/1/2 65/1/2
f 81/1/2 67/1/2 90/1/2
f 69/1/2 90/1/2 67/1/2
f 71/1/2 90/1/2 69/1/2
f 73/1/2 90/1/2 71/1/2
f 75/1/2 90/1/2 73/1/2
f 90/1/2 75/1/2 89/1/2
f 77/1/2 89/1/2 75/1/2
f 78/1/2 89/1/2 77/1/2
f 78/1/2 76/1/2 89/1/2
f 76/1/2 74/1/2 89/1/2
f 89/1/2 74/1/2 88/1/2
f 74/1/2 72/1/2 88/1/2
f 72/1/2 70/1/2 88/1/2
f 70/1/2 68/1/2 88/1/2
f 68/1/2 66/1/2 88/1/2
f 88/1/2 66/1/2 87/1/2
f 66/1/2 64/1/2 87/1/2
f 80/1/2 87/1/2 64/1/2
f 80/1/2 62/1/2 87/1/2
f 62/1/2 60/1/2 87/1/2
f 87/1/2 60/1/2 86/1/2
f 60/1/2 58/1/2 86/1/2
f 58/1/2 56/1/2 86/1/2
f 56/1/2 54/1/2 86/1/2
f 54/1/2 52/1/2 86/1/2
f 86/1/2 52/1/2 85/1/2
f 52/1/2 50/1/2 85/1/2
f 50/1/2 48/1/2 85/1/2
f 48/1/2 46/1/2 85/1/2
f 46/1/2 44/1/2 85/1/2
f 85/1/2 44/1/2 84/1/2
f 44/1/2 42/1/2 84/1/2
f 42/1/2 2/1/2 84/1/2
f 43/1/2 84/1/2 2/1/2
f 45/1/2 84/1/2 43/1/2
f 84/1/2 45/1/2 83/1/2
f 47/1/2 83/1/2 45/1/2
f 49/1/2 83/1/2 47/1/2
f 51/1/2 83/1/2 49/1/2
f 53/1/2 83/1/2 51/1/2
f 83/1/2 53/1/2 82/1/2
f 55/1/2 82/1/2 53/1/2
f 79/1/2 82/1/2 55/1/2
f 24/1/2 61/1/2 22/1/2
f 61/1/2 24/1/2 63/1/2
f 63/1/2 24/1/2 65/1/2
f 26/1/2 65/1/2 24/1/2
f 28/1/2 65/1/2 26/1/2
f 65/1/2 28/1/2 67/1/2
f 67/1/2 28/1/2 69/1/2
f 30/1/2 69/1/2 28/1/2
f 32/1/2 69/1/2 30/1/2
f 69/1/2 32/1/2 71/1/2
f 71/1/2 32/1/2 73/1/2
f 34/1/2 73/1/2 32/1/2
f 36/1/2 73/1/2 34/1/2
f 73/1/2 36/1/2 75/1/2
f 75/1/2 36/1/2 77/1/2
f 38/1/2 77/1/2 36/1/2
f 39/1/2 77/1/2 38/1/2
f 77/1/2 39/1/2 78/1/2
f 76/1/2 78/1/2 39/1/2
f 39/1/2 37/1/2 76/1/2
f 37/1/2 35/1/2 76/1/2
f 74/1/2 76/1/2 35/1/2
f 72/1/2 74/1/2 35/1/2
f 35/1/2 33/1/2 72/1/2
f 33/1/2 31/1/2 72/1/2
f 70/1/2 72/1/2 31/1/2
f 68/1/2 70/1/2 31/1/2
f 31/1/2 29/1/2 68/1/2
f 29/1/2 27/1/2 68/1/2
f 66/1/2 68/1/2 27/1/2
f 64/1/2 66/1/2 27/1/2
f 27/1/2 25/1/2 64/1/2
f 41/1/2 64/1/2 25/1/2
f 64/1/2 41/1/2 80/1/2
f 62/1/2 80/1/2 41/1/2
f 41/1/2 23/1/2 62/1/2
f 23/1/2 21/1/2 62/1/2
f 60/1/2 62/1/2 21/1/2
f 58/1/2 60/1/2 21/1/2
f 21/1/2 19/1/2 58/1/2
f 19/1/2 17/1/2 58/1/2
f 56/1/2 58/1/2 17/1/2
f 54/1/2 56/1/2 17/1/2
f 17/1/2 15/1/2 54/1/2
f 15/1/2 13/1/2 54/1/2
f 52/1/2 54/1/2 13/1/2
f 50/1/2 52/1/2 13/1/2
f 13/1/2 11/1/2 50/1/2
f 11/1/2 9/1/2 50/1/2
f 48/1/2 50/1/2 9/1/2
f 46/1/2 48/1/2 9/1/2
f 9/1/2 7/1/2 46/1/2
f 7/1/2 5/1/2 46/1/2
f 44/1/2 46/1/2 5/1/2
f 42/1/2 44/1/2 5/1/2
f 5/1/2 3/1/2 42/1/2
f 3/1/2 1/1/2 42/1/2
f 2/1/2 42/1/2 1/1/2
f 2/1/2 1/1/2 43/1/2
f 4/1/2 43/1/2 1/1/2
f 6/1/2 43/1/2 4/1/2
f 43/1/2 6/1/2 45/1/2
f 45/1/2 6/1/2 47/1/2
f 8/1/2 47/1/2 6/1/2
f 10/1/2 47/1/2 8/1/2
f 47/1/2 10/1/2 49/1/2
f 49/1/2 10/1/2 51/1/2
f 12/1/2 51/1/2 10/1/2
f 14/1/2 51/1/2 12/1/2
f 51/1/2 14/1/2 53/1/2
f 53/1/2 14/1/2 55/1/2
f 16/1/2 55/1/2 14/1/2
f 40/1/2 55/1/2 16/1/2
f 55/1/2 40/1/2 79/1/2
f 57/1/2 79/1/2 40/1/2
f 40/1/2 18/1/2 57/1/2
f 20/1/2 57/1/2 18/1/2
f 57/1/2 20/1/2 59/1/2
f 59/1/2 20/1/2 61/1/2
f 22/1/2 61/1/2 20/1/2
f 172/1/2 182/1/2 173/1/2
f 181/1/2 182/1/2 172/1/2
f 180/1/2 182/1/2 181/1/2
f 179/1/2 182/1/2 180/1/2
f 178/1/2 182/1/2 179/1/2
f 178/1/2 177/1/2 182/1/2
f 176/1/2 182/1/2 177/1/2
f 175/1/2 182/1/2 176/1/2
f 174/1/2 182/1/2 175/1/2
f 173/1/2 182/1/2 174/1/2
f 170/1/2 148/1/2 173/1/2
f 150/1/2 173/1/2 148/1/2
f 173/1/2 150/1/2 172/1/2
f 152/1/2 172/1/2 150/1/2
f 154/1/2 172/1/2 152/1/2
f 156/1/2 172/1/2 154/1/2
f 158/1/2 172/1/2 156/1/2
f 172/1/2 158/1/2 181/1/2
f 160/1/2 181/1/2 158/1/2
f 162/1/2 181/1/2 160/1/2
f 164/1/2 181/1/2 162/1/2
f 166/1/2 181/1/2 164/1/2
f 181/1/2 166/1/2 180/1/2
f 168/1/2 180/1/2 166/1/2
f 169/1/2 180/1/2 168/1/2
f 169/1/2 167/1/2 180/1/2
f 167/1/2 165/1/2 180/1/2
f 180/1/2 165/1/2 179/1/2
f 165/1/2 163/1/2 179/1/2
f 163/1/2 161/1/2 179/1/2
f 161/1/2 159/1/2 179/1/2
f 159/1/2 157/1/2 179/1/2
f 179/1/2 157/1/2 178/1/2
f 157/1/2 155/1/2 178/1/2
f 171/1/2 178/1/2 155/1/2
f 171/1/2 153/1/2 178/1/2
f 153/1/2 151/1/2 178/1/2
f 178/1/2 151/1/2 177/1/2
f 151/1/2 149/1/2 177/1/2
f 149/1/2 147/1/2 177/1/2
f 147/1/2 145/1/2 177/1/2
f 145/1/2 143/1/2 177/1/2
f 177/1/2 143/1/2 176/1/2
f 143/1/2 141/1/2 176/1/2
f 141/1/2 139/1/2 176/1/2
f 139/1/2 137/1/2 176/1/2
f 137/1/2 135/1/2 176/1/2
f 176/1/2 135/1/2 175/1/2
f 135/1/2 133/1/2 175/1/2
f 133/1/2 93/1/2 175/1/2
f 134/1/2 175/1/2 93/1/2
f 136/1/2 175/1/2 134/1/2
f 175/1/2 136/1/2 174/1/2
f 138/1/2 174/1/2 136/1/2
f 140/1/2 174/1/2 138/1/2
f 142/1/2 174/1/2 140/1/2
f 144/1/2 174/1/2 142/1/2
f 174/1/2 144/1/2 173/1/2
f 146/1/2 173/1/2 144/1/2
f 170/1/2 173/1/2 146/1/2
f 115/1/2 152/1/2 113/1/2
f 152/1/2 115/1/2 154/1/2
f 154/1/2 115/1/2 156/1/2
f 117/1/2 156/1/2 115/1/2
f 119/1/2 156/1/2 117/1/2
f 156/1/2 119/1/2 158/1/2
f 158/1/2 119/1/2 160/1/2
f 121/1/2 160/1/2 119/1/2
f 123/1/2 160/1/2 121/1/2
f 160/1/2 123/1/2 162/1/2
f 162/1/2 123/1/2 164/1/2
f 125/1/2 164/1/2 123/1/2
f 127/1/2 164/1/2 125/1/2
f 164/1/2 127/1/2 166/1/2
f 166/1/2 127/1/2 168/1/2
f 129/1/2 168/1/2 127/1/2
f 130/1/2 168/1/2 129/1/2
f 168/1/2 130/1/2 169/1/2
f 167/1/2 169/1/2 130/1/2
f 130/1/2 128/1/2 167/1/2
f 128/1/2 126/1/2 167/1/2
f 165/1/2 167/1/2 126/1/2
f 163/1/2 165/1/2 126/1/2
f 126/1/2 124/1/2 163/1/2
f 124/1/2 122/1/2 163/1/2
f 161/1/2 163/1/2 122/1/2
f 159/1/2 161/1/2 122/1/2
f 122/1/2 120/1/2 159/1/2
f 120/1/2 118/1/2 159/1/2
f 157/1/2 159/1/2 118/1/2
f 155/1/2 157/1/2 118/1/2
f 118/1/2 116/1/2 155/1/2
f 132/1/2 155/1/2 116/1/2
f 155/1/2 132/1/2 171/1/2
f 153/1/2 171/1/2 132/1/2
f 132/1/2 114/1/2 153/1/2
f 114/1/2 112/1/2 153/1/2
f 151/1/2 153/1/2 112/1/2
f 149/1/2 151/1/2 112/1/2
f 112/1/2 110/1/2 149/1/2
f 110/1/2 108/1/2 149/1/2
f 147/1/2 149/1/2 108/1/2
f 145/1/2 147/1/2 108/1/2
f 108/1/2 106/1/2 145/1/2
f 106/1/2 104/1/2 145/1/2
f 143/1/2 145/1/2 104/1/2
f 141/1/2 143/1/2 104/1/2
f 104/1/2 102/1/2 141/1/2
f 102/1/2 100/1/2 141/1/2
f 139/1/2 141/1/2 100/1/2
f 137/1/2 139/1/2 100/1/2
f 100/1/2 98/1/2 137/1/2
f 98/1/2 96/1/2 137/1/2
f 135/1/2 137/1/2 96/1/2
f 133/1/2 135/1/2 96/1/2
f 96/1/2 94/1/2 133/1/2
f 94/1/2 92/1/2 133/1/2
f 93/1/2 133/1/2 92/1/2
f 93/1/2 92/1/2 134/1/2
f 95/1/2 134/1/2 92/1/2
f 97/1/2 134/1/2 95/1/2
f 134/1/2 97/1/2 136/1/2
f 136/1/2 97/1/2 138/1/2
f 99/1/2 138/1/2 97/1/2
f 101/1/2 138/1/2 99/1/2
f 138/1/2 101/1/2 140/1/2
f 140/1/2 101/1/2 142/1/2
f 103/1/2 142/1/2 101/1/2
f 105/1/2 142/1/2 103/1/2
f 142/1/2 105/1/2 144/1/2
f 144/1/2 105/1/2 146/1/2
f 107/1/2 146/1/2 105/1/2
f 131/1/2 146/1/2 107/1/2
f 146/1/2 131/1/2 170/1/2
f 148/1/2 170/1/2 131/1/2
f 131/1/2 109/1/2 148/1/2
f 111/1/2 148/1/2 109/1/2
f 148/1/2 111/1/2 150/1/2
f 150/1/2 111/1/2 152/1/2
f 113/1/2 152/1/2 111/1/2
