# Blender 4.2.14 LTS
# www.blender.org
o SnowMan_Flip
v 0.016537 0.091212 -0.000000
v 0.000746 0.088632 -0.000000
v -0.014238 0.083021 -0.000000
v -0.027840 0.074594 -0.000000
v -0.039536 0.063676 -0.000000
v -0.048877 0.050686 -0.000000
v -0.055505 0.036123 -0.000000
v -0.059164 0.020547 -0.000000
v -0.059714 0.004556 -0.000000
v 0.017196 0.080887 -0.000000
v 0.003407 0.078634 -0.000000
v -0.009678 0.073734 -0.000000
v -0.021555 0.066376 -0.000000
v -0.031768 0.056842 -0.000000
v -0.039926 0.045498 -0.000000
v -0.045713 0.032781 -0.000000
v -0.048909 0.019179 -0.000000
v -0.049389 0.005216 -0.000000
v 0.017923 0.069513 -0.000000
v -0.023212 0.049313 -0.000000
v -0.038015 0.005942 -0.000000
v 0.021739 0.009759 -0.000000
v 0.032527 0.090662 -0.000000
v 0.048104 0.087003 -0.000000
v 0.062667 0.080375 -0.000000
v 0.075657 0.071034 -0.000000
v 0.086575 0.059338 -0.000000
v 0.095002 0.045736 -0.000000
v 0.100613 0.030752 -0.000000
v 0.103193 0.014961 -0.000000
v 0.031160 0.080407 -0.000000
v 0.044762 0.077211 -0.000000
v 0.057479 0.071424 -0.000000
v 0.068822 0.063267 -0.000000
v 0.078356 0.053053 -0.000000
v 0.085715 0.041176 -0.000000
v 0.090615 0.028091 -0.000000
v 0.092868 0.014302 -0.000000
v 0.061293 0.054710 -0.000000
v 0.081493 0.013575 -0.000000
v 0.026942 -0.071695 -0.000000
v 0.010951 -0.071144 -0.000000
v -0.004625 -0.067485 -0.000000
v -0.019188 -0.060858 -0.000000
v -0.032178 -0.051516 -0.000000
v -0.043096 -0.039820 -0.000000
v -0.051523 -0.026219 -0.000000
v -0.057134 -0.011235 -0.000000
v 0.026282 -0.061369 -0.000000
v 0.012319 -0.060889 -0.000000
v -0.001283 -0.057694 -0.000000
v -0.014000 -0.051906 -0.000000
v -0.025343 -0.043749 -0.000000
v -0.034878 -0.033535 -0.000000
v -0.042236 -0.021658 -0.000000
v -0.047136 -0.008573 -0.000000
v 0.025556 -0.049995 -0.000000
v -0.017814 -0.035192 -0.000000
v 0.042733 -0.069114 -0.000000
v 0.057717 -0.063503 -0.000000
v 0.071318 -0.055077 -0.000000
v 0.083014 -0.044159 -0.000000
v 0.092356 -0.031168 -0.000000
v 0.098983 -0.016605 -0.000000
v 0.102643 -0.001029 -0.000000
v 0.040072 -0.059116 -0.000000
v 0.053156 -0.054217 -0.000000
v 0.065034 -0.046858 -0.000000
v 0.075247 -0.037324 -0.000000
v 0.083404 -0.025980 -0.000000
v 0.089192 -0.013263 -0.000000
v 0.092387 0.000338 -0.000000
v 0.066691 -0.029795 -0.000000
v -0.010944 -0.078940 0.000000
v -0.021471 -0.087024 0.000000
v -0.034289 -0.090465 0.000000
v -0.047449 -0.088738 0.000000
v -0.058946 -0.082106 0.000000
v -0.067030 -0.071580 0.000000
v -0.070470 -0.058761 0.000000
v -0.068743 -0.045602 0.000000
v -0.062112 -0.034105 0.000000
v -0.018759 -0.072092 0.000000
v -0.026070 -0.077707 0.000000
v -0.034973 -0.080096 0.000000
v -0.044113 -0.078897 0.000000
v -0.052098 -0.074291 0.000000
v -0.057712 -0.066980 0.000000
v -0.060102 -0.058077 0.000000
v -0.058903 -0.048938 0.000000
v -0.054297 -0.040953 0.000000
v -0.049441 -0.045208 0.000000
v -0.047843 -0.069435 0.000000
v -0.023616 -0.067837 0.000000
v -0.040091 -0.060588 0.000000
vn -0.0000 -0.0000 1.0000
vt 0.000000 0.000000
s 0
f 2/1/1 3/1/1 12/1/1
f 4/1/1 13/1/1 12/1/1
f 4/1/1 5/1/1 14/1/1
f 6/1/1 15/1/1 14/1/1
f 6/1/1 7/1/1 16/1/1
f 7/1/1 8/1/1 17/1/1
f 9/1/1 18/1/1 17/1/1
f 2/1/1 11/1/1 10/1/1
f 11/1/1 12/1/1 19/1/1
f 10/1/1 11/1/1 19/1/1
f 19/1/1 20/1/1 22/1/1
f 20/1/1 21/1/1 22/1/1
f 20/1/1 19/1/1 12/1/1
f 12/1/1 13/1/1 20/1/1
f 13/1/1 14/1/1 20/1/1
f 14/1/1 15/1/1 20/1/1
f 15/1/1 16/1/1 20/1/1
f 21/1/1 20/1/1 16/1/1
f 16/1/1 17/1/1 21/1/1
f 17/1/1 18/1/1 21/1/1
f 2/1/1 12/1/1 11/1/1
f 4/1/1 12/1/1 3/1/1
f 4/1/1 14/1/1 13/1/1
f 6/1/1 14/1/1 5/1/1
f 6/1/1 16/1/1 15/1/1
f 7/1/1 17/1/1 16/1/1
f 9/1/1 17/1/1 8/1/1
f 2/1/1 10/1/1 1/1/1
f 23/1/1 32/1/1 24/1/1
f 25/1/1 32/1/1 33/1/1
f 25/1/1 34/1/1 26/1/1
f 27/1/1 34/1/1 35/1/1
f 27/1/1 36/1/1 28/1/1
f 28/1/1 37/1/1 29/1/1
f 30/1/1 37/1/1 38/1/1
f 23/1/1 10/1/1 31/1/1
f 31/1/1 19/1/1 32/1/1
f 10/1/1 19/1/1 31/1/1
f 19/1/1 22/1/1 39/1/1
f 39/1/1 22/1/1 40/1/1
f 39/1/1 32/1/1 19/1/1
f 32/1/1 39/1/1 33/1/1
f 33/1/1 39/1/1 34/1/1
f 34/1/1 39/1/1 35/1/1
f 35/1/1 39/1/1 36/1/1
f 40/1/1 36/1/1 39/1/1
f 36/1/1 40/1/1 37/1/1
f 37/1/1 40/1/1 38/1/1
f 23/1/1 31/1/1 32/1/1
f 25/1/1 24/1/1 32/1/1
f 25/1/1 33/1/1 34/1/1
f 27/1/1 26/1/1 34/1/1
f 27/1/1 35/1/1 36/1/1
f 28/1/1 36/1/1 37/1/1
f 30/1/1 29/1/1 37/1/1
f 23/1/1 1/1/1 10/1/1
f 42/1/1 51/1/1 43/1/1
f 44/1/1 51/1/1 52/1/1
f 44/1/1 53/1/1 45/1/1
f 46/1/1 53/1/1 54/1/1
f 46/1/1 55/1/1 47/1/1
f 47/1/1 56/1/1 48/1/1
f 9/1/1 56/1/1 18/1/1
f 42/1/1 49/1/1 50/1/1
f 50/1/1 57/1/1 51/1/1
f 49/1/1 57/1/1 50/1/1
f 57/1/1 22/1/1 58/1/1
f 58/1/1 22/1/1 21/1/1
f 58/1/1 51/1/1 57/1/1
f 51/1/1 58/1/1 52/1/1
f 52/1/1 58/1/1 53/1/1
f 53/1/1 58/1/1 54/1/1
f 54/1/1 58/1/1 55/1/1
f 21/1/1 55/1/1 58/1/1
f 55/1/1 21/1/1 56/1/1
f 56/1/1 21/1/1 18/1/1
f 42/1/1 50/1/1 51/1/1
f 44/1/1 43/1/1 51/1/1
f 44/1/1 52/1/1 53/1/1
f 46/1/1 45/1/1 53/1/1
f 46/1/1 54/1/1 55/1/1
f 47/1/1 55/1/1 56/1/1
f 9/1/1 48/1/1 56/1/1
f 42/1/1 41/1/1 49/1/1
f 59/1/1 60/1/1 67/1/1
f 61/1/1 68/1/1 67/1/1
f 61/1/1 62/1/1 69/1/1
f 63/1/1 70/1/1 69/1/1
f 63/1/1 64/1/1 71/1/1
f 64/1/1 65/1/1 72/1/1
f 30/1/1 38/1/1 72/1/1
f 59/1/1 66/1/1 49/1/1
f 66/1/1 67/1/1 57/1/1
f 49/1/1 66/1/1 57/1/1
f 57/1/1 73/1/1 22/1/1
f 73/1/1 40/1/1 22/1/1
f 73/1/1 57/1/1 67/1/1
f 67/1/1 68/1/1 73/1/1
f 68/1/1 69/1/1 73/1/1
f 69/1/1 70/1/1 73/1/1
f 70/1/1 71/1/1 73/1/1
f 40/1/1 73/1/1 71/1/1
f 71/1/1 72/1/1 40/1/1
f 72/1/1 38/1/1 40/1/1
f 59/1/1 67/1/1 66/1/1
f 61/1/1 67/1/1 60/1/1
f 61/1/1 69/1/1 68/1/1
f 63/1/1 69/1/1 62/1/1
f 63/1/1 71/1/1 70/1/1
f 64/1/1 72/1/1 71/1/1
f 30/1/1 72/1/1 65/1/1
f 59/1/1 49/1/1 41/1/1
f 81/1/1 80/1/1 89/1/1
f 83/1/1 74/1/1 43/1/1
f 91/1/1 82/1/1 81/1/1
f 84/1/1 75/1/1 74/1/1
f 47/1/1 82/1/1 91/1/1
f 76/1/1 75/1/1 84/1/1
f 77/1/1 76/1/1 85/1/1
f 87/1/1 78/1/1 77/1/1
f 79/1/1 78/1/1 87/1/1
f 80/1/1 79/1/1 88/1/1
f 84/1/1 74/1/1 83/1/1
f 83/1/1 43/1/1 44/1/1
f 91/1/1 81/1/1 90/1/1
f 81/1/1 89/1/1 90/1/1
f 47/1/1 91/1/1 46/1/1
f 76/1/1 84/1/1 85/1/1
f 87/1/1 77/1/1 86/1/1
f 77/1/1 85/1/1 86/1/1
f 79/1/1 87/1/1 88/1/1
f 80/1/1 88/1/1 89/1/1
f 45/1/1 95/1/1 94/1/1
f 45/1/1 92/1/1 95/1/1
f 93/1/1 95/1/1 92/1/1
f 95/1/1 93/1/1 94/1/1
f 93/1/1 92/1/1 89/1/1
f 94/1/1 93/1/1 85/1/1
f 84/1/1 94/1/1 85/1/1
f 83/1/1 94/1/1 84/1/1
f 44/1/1 94/1/1 83/1/1
f 45/1/1 46/1/1 92/1/1
f 45/1/1 94/1/1 44/1/1
f 91/1/1 92/1/1 46/1/1
f 90/1/1 92/1/1 91/1/1
f 89/1/1 92/1/1 90/1/1
f 88/1/1 93/1/1 89/1/1
f 87/1/1 93/1/1 88/1/1
f 86/1/1 93/1/1 87/1/1
f 85/1/1 93/1/1 86/1/1
