# Blender 4.2.14 LTS
# www.blender.org
o Star
v 0.000000 0.086345 0.000000
v 0.030042 0.041463 0.000000
v 0.003354 0.084611 0.000000
v 0.027220 0.044480 -0.000000
v 0.000000 0.070186 0.000000
v 0.023104 0.032747 -0.000000
v 0.000000 0.038723 -0.000000
v 0.009321 0.074579 0.000000
v 0.015287 0.064546 0.000000
v 0.021254 0.054513 0.000000
v 0.006526 0.059624 -0.000000
v 0.012815 0.049428 -0.000000
v 0.019562 0.038490 -0.000000
v 0.082119 0.026682 -0.000000
v 0.048717 -0.015759 -0.000000
v 0.081507 0.022956 -0.000000
v 0.050714 -0.012143 -0.000000
v 0.066751 0.021689 -0.000000
v 0.038284 -0.011854 -0.000000
v 0.036828 0.011966 -0.000000
v 0.073809 0.014181 -0.000000
v 0.066111 0.005407 -0.000000
v 0.058412 -0.003368 -0.000000
v 0.058722 0.012218 -0.000000
v 0.050969 0.003086 -0.000000
v 0.042651 -0.006711 -0.000000
v 0.079434 0.029337 -0.000000
v 0.068048 0.031911 -0.000000
v 0.056662 0.034485 -0.000000
v 0.045277 0.037059 -0.000000
v 0.054689 0.024631 -0.000000
v 0.043049 0.027462 -0.000000
v 0.050753 -0.069855 -0.000000
v 0.000000 -0.051203 -0.000000
v 0.047020 -0.070424 -0.000000
v 0.004123 -0.051984 -0.000000
v 0.041254 -0.056781 -0.000000
v 0.000000 -0.040073 -0.000000
v 0.022761 -0.031328 -0.000000
v 0.036295 -0.065814 -0.000000
v 0.025571 -0.061204 -0.000000
v 0.014847 -0.056594 -0.000000
v 0.029766 -0.052072 -0.000000
v 0.018686 -0.047521 -0.000000
v 0.006798 -0.042637 -0.000000
v 0.052447 -0.066480 -0.000000
v 0.051377 -0.054857 -0.000000
v 0.050307 -0.043233 -0.000000
v 0.049236 -0.031609 -0.000000
v 0.040325 -0.044401 -0.000000
v 0.039421 -0.032456 -0.000000
v -0.030042 0.041463 0.000000
v -0.003354 0.084611 0.000000
v -0.027220 0.044480 -0.000000
v -0.023104 0.032747 -0.000000
v -0.009321 0.074579 0.000000
v -0.015287 0.064546 0.000000
v -0.021254 0.054513 0.000000
v -0.006526 0.059624 -0.000000
v -0.012815 0.049428 -0.000000
v -0.019562 0.038490 -0.000000
v -0.082119 0.026682 -0.000000
v -0.048717 -0.015759 -0.000000
v -0.081507 0.022956 -0.000000
v -0.050714 -0.012143 -0.000000
v -0.066751 0.021689 -0.000000
v -0.038284 -0.011854 -0.000000
v -0.036828 0.011966 -0.000000
v -0.073809 0.014181 -0.000000
v -0.066111 0.005407 -0.000000
v -0.058412 -0.003368 -0.000000
v -0.058722 0.012218 -0.000000
v -0.050969 0.003086 -0.000000
v -0.042651 -0.006711 -0.000000
v -0.079434 0.029337 -0.000000
v -0.068048 0.031911 -0.000000
v -0.056662 0.034485 -0.000000
v -0.045277 0.037059 -0.000000
v -0.054689 0.024631 -0.000000
v -0.043049 0.027462 -0.000000
v -0.050753 -0.069855 -0.000000
v -0.047020 -0.070424 -0.000000
v -0.004123 -0.051984 -0.000000
v -0.041254 -0.056781 -0.000000
v 0.000000 0.003537 -0.000000
v -0.022761 -0.031328 -0.000000
v -0.036295 -0.065814 -0.000000
v -0.025571 -0.061204 -0.000000
v -0.014847 -0.056594 -0.000000
v -0.029766 -0.052072 -0.000000
v -0.018686 -0.047521 -0.000000
v -0.006798 -0.042637 -0.000000
v -0.052447 -0.066480 -0.000000
v -0.051377 -0.054857 -0.000000
v -0.050307 -0.043233 -0.000000
v -0.049236 -0.031609 -0.000000
v -0.040325 -0.044401 -0.000000
v -0.039421 -0.032456 -0.000000
vn -0.0000 -0.0000 1.0000
vt 0.000000 0.000000
s 0
f 3/1/1 1/1/1 5/1/1
f 8/1/1 3/1/1 5/1/1
f 8/1/1 5/1/1 9/1/1
f 11/1/1 9/1/1 5/1/1
f 11/1/1 12/1/1 9/1/1
f 10/1/1 9/1/1 12/1/1
f 4/1/1 10/1/1 12/1/1
f 12/1/1 13/1/1 4/1/1
f 13/1/1 6/1/1 4/1/1
f 2/1/1 4/1/1 6/1/1
f 6/1/1 32/1/1 2/1/1
f 2/1/1 32/1/1 30/1/1
f 30/1/1 32/1/1 29/1/1
f 31/1/1 29/1/1 32/1/1
f 31/1/1 18/1/1 29/1/1
f 28/1/1 29/1/1 18/1/1
f 28/1/1 18/1/1 27/1/1
f 18/1/1 14/1/1 27/1/1
f 16/1/1 14/1/1 18/1/1
f 21/1/1 16/1/1 18/1/1
f 21/1/1 18/1/1 22/1/1
f 24/1/1 22/1/1 18/1/1
f 24/1/1 25/1/1 22/1/1
f 23/1/1 22/1/1 25/1/1
f 17/1/1 23/1/1 25/1/1
f 25/1/1 26/1/1 17/1/1
f 26/1/1 19/1/1 17/1/1
f 15/1/1 17/1/1 19/1/1
f 19/1/1 51/1/1 15/1/1
f 15/1/1 51/1/1 49/1/1
f 49/1/1 51/1/1 48/1/1
f 50/1/1 48/1/1 51/1/1
f 50/1/1 37/1/1 48/1/1
f 47/1/1 48/1/1 37/1/1
f 47/1/1 37/1/1 46/1/1
f 37/1/1 33/1/1 46/1/1
f 35/1/1 33/1/1 37/1/1
f 40/1/1 35/1/1 37/1/1
f 40/1/1 37/1/1 41/1/1
f 43/1/1 41/1/1 37/1/1
f 43/1/1 44/1/1 41/1/1
f 42/1/1 41/1/1 44/1/1
f 36/1/1 42/1/1 44/1/1
f 44/1/1 45/1/1 36/1/1
f 45/1/1 38/1/1 36/1/1
f 34/1/1 36/1/1 38/1/1
f 34/1/1 38/1/1 83/1/1
f 83/1/1 38/1/1 92/1/1
f 91/1/1 83/1/1 92/1/1
f 83/1/1 91/1/1 89/1/1
f 89/1/1 91/1/1 88/1/1
f 90/1/1 88/1/1 91/1/1
f 90/1/1 84/1/1 88/1/1
f 87/1/1 88/1/1 84/1/1
f 87/1/1 84/1/1 82/1/1
f 82/1/1 84/1/1 81/1/1
f 84/1/1 93/1/1 81/1/1
f 94/1/1 93/1/1 84/1/1
f 94/1/1 84/1/1 95/1/1
f 97/1/1 95/1/1 84/1/1
f 97/1/1 98/1/1 95/1/1
f 96/1/1 95/1/1 98/1/1
f 63/1/1 96/1/1 98/1/1
f 67/1/1 63/1/1 98/1/1
f 63/1/1 67/1/1 65/1/1
f 74/1/1 65/1/1 67/1/1
f 73/1/1 65/1/1 74/1/1
f 65/1/1 73/1/1 71/1/1
f 71/1/1 73/1/1 70/1/1
f 72/1/1 70/1/1 73/1/1
f 72/1/1 66/1/1 70/1/1
f 69/1/1 70/1/1 66/1/1
f 69/1/1 66/1/1 64/1/1
f 64/1/1 66/1/1 62/1/1
f 66/1/1 75/1/1 62/1/1
f 76/1/1 75/1/1 66/1/1
f 76/1/1 66/1/1 77/1/1
f 79/1/1 77/1/1 66/1/1
f 79/1/1 80/1/1 77/1/1
f 78/1/1 77/1/1 80/1/1
f 52/1/1 78/1/1 80/1/1
f 55/1/1 52/1/1 80/1/1
f 52/1/1 55/1/1 54/1/1
f 61/1/1 54/1/1 55/1/1
f 60/1/1 54/1/1 61/1/1
f 54/1/1 60/1/1 58/1/1
f 58/1/1 60/1/1 57/1/1
f 59/1/1 57/1/1 60/1/1
f 59/1/1 5/1/1 57/1/1
f 56/1/1 57/1/1 5/1/1
f 56/1/1 5/1/1 53/1/1
f 5/1/1 1/1/1 53/1/1
f 7/1/1 11/1/1 5/1/1
f 11/1/1 7/1/1 12/1/1
f 12/1/1 7/1/1 13/1/1
f 13/1/1 7/1/1 6/1/1
f 6/1/1 20/1/1 32/1/1
f 31/1/1 32/1/1 20/1/1
f 20/1/1 18/1/1 31/1/1
f 20/1/1 24/1/1 18/1/1
f 24/1/1 20/1/1 25/1/1
f 25/1/1 20/1/1 26/1/1
f 26/1/1 20/1/1 19/1/1
f 19/1/1 39/1/1 51/1/1
f 50/1/1 51/1/1 39/1/1
f 39/1/1 37/1/1 50/1/1
f 39/1/1 43/1/1 37/1/1
f 43/1/1 39/1/1 44/1/1
f 44/1/1 39/1/1 45/1/1
f 45/1/1 39/1/1 38/1/1
f 86/1/1 92/1/1 38/1/1
f 91/1/1 92/1/1 86/1/1
f 90/1/1 91/1/1 86/1/1
f 86/1/1 84/1/1 90/1/1
f 86/1/1 97/1/1 84/1/1
f 97/1/1 86/1/1 98/1/1
f 67/1/1 98/1/1 86/1/1
f 74/1/1 67/1/1 68/1/1
f 73/1/1 74/1/1 68/1/1
f 72/1/1 73/1/1 68/1/1
f 68/1/1 66/1/1 72/1/1
f 68/1/1 79/1/1 66/1/1
f 79/1/1 68/1/1 80/1/1
f 55/1/1 80/1/1 68/1/1
f 61/1/1 55/1/1 7/1/1
f 60/1/1 61/1/1 7/1/1
f 59/1/1 60/1/1 7/1/1
f 7/1/1 5/1/1 59/1/1
f 7/1/1 55/1/1 6/1/1
f 19/1/1 20/1/1 6/1/1
f 38/1/1 39/1/1 19/1/1
f 67/1/1 86/1/1 38/1/1
f 67/1/1 55/1/1 68/1/1
f 55/1/1 85/1/1 6/1/1
f 19/1/1 6/1/1 85/1/1
f 38/1/1 19/1/1 85/1/1
f 67/1/1 38/1/1 85/1/1
f 67/1/1 85/1/1 55/1/1
